<?xml version="1.0" encoding="utf-8"?>
<!-- Generator: Adobe Illustrator 27.5.0, SVG Export Plug-In . SVG Version: 6.00 Build 0)  -->
<svg version="1.1" xmlns="http://www.w3.org/2000/svg" xmlns:xlink="http://www.w3.org/1999/xlink" x="0px" y="0px"
	 viewBox="0 0 500 500" style="enable-background:new 0 0 500 500;" xml:space="preserve">
<g id="BACKGROUND">
	<rect style="fill:#FFFFFF;" width="500" height="500"/>
</g>
<g id="OBJECTS">
	<g>
		<path style="fill:#F9D2DE;" d="M206.987,84.769c-16.9-14.875-35.902-30.594-58.414-30.768
			c-20.344-0.158-38.392,12.57-53.686,25.987c-15.648,13.729-30.747,29.869-35.443,50.149c-5.574,24.072,4.714,49.141,18.703,69.508
			c7.634,11.115,18.196,22.332,31.678,22.537c13.295,0.202,24.185-10.472,31.558-21.538c7.374-11.065,13.31-23.682,24.094-31.462
			c8.369-6.037,18.725-8.449,28.697-11.102c9.972-2.653,20.262-5.915,27.645-13.125C242.583,124.68,223.383,99.201,206.987,84.769z"
			/>
		<g>
			<path style="fill:#2E383A;" d="M128.327,109.808c-0.506-2.859-0.357-5.788-0.512-8.687c-0.155-2.899-0.656-5.889-2.285-8.292
				c-1.173-1.73-3.054-3.061-5.069-3.432c0.012-0.026,0.03-0.049,0.041-0.076c0.729-1.654,0.374-3.729-0.865-5.046
				c-1.069-1.136-2.74-1.65-4.268-1.367c-1.338,0.789-2.262,2.275-2.322,3.833c-0.071,1.807,1.023,3.606,2.659,4.375
				c0.026,0.012,0.055,0.018,0.081,0.03c-1.277,1.602-1.822,3.842-1.572,5.917c0.349,2.882,1.933,5.467,3.719,7.756
				c1.786,2.289,3.821,4.401,5.316,6.89c2.303,3.835,3.188,8.323,4.392,12.631c2.02,7.227,5.037,14.174,8.938,20.584
				c0.771,1.267,1.799,2.636,3.136,3.063c0.728-1.2,0.605-2.907,0.355-4.369c-1.265-7.396-3.549-14.618-6.768-21.395
				C131.385,118.179,129.107,114.213,128.327,109.808z"/>
			<path style="fill:#2E383A;" d="M113.422,105.185c-12.995,12.309-20.51,29.699-34.187,41.246c-1.802,1.521-3.788,2.97-6.103,3.421
				c-2.315,0.45-5.028-0.367-6.13-2.452c-1.065-2.016-0.374-4.474,0.372-6.628c2.131-6.15,4.562-12.196,7.28-18.11
				c-2.995,4.885-5.991,9.77-8.986,14.655c-0.868,1.415-1.928,2.967-3.565,3.249c-1.983,0.342-3.813-1.517-4.15-3.501
				c-0.336-1.984,0.418-3.98,1.26-5.807s1.806-3.672,1.923-5.681c-3.797,3.301-6.403,7.943-7.245,12.903
				c-0.197,1.159-0.335,2.414-1.115,3.294c-1.659,1.872-4.717,0.769-6.878-0.491c-2.362-1.378-4.735-2.836-6.539-4.891
				c-1.804-2.055-2.984-4.824-2.533-7.521c0.394-2.355,1.943-4.335,3.529-6.12c4.196-4.722,9.03-8.877,14.33-12.315
				c1.055-0.685,2.169-1.356,3.414-1.531c1.245-0.175,2.661,0.27,3.274,1.368c0.777,1.393,0.011,3.118-0.819,4.481
				c-2.062,3.386-4.561,6.506-7.415,9.257c4.163-1.186,7.357-4.535,9.816-8.096s4.421-7.487,7.28-10.737
				c4.629-5.261,11.335-8.368,18.203-9.759c2.266-0.459,4.564-0.745,6.869-0.907c1.574-0.111,4.154-0.928,4.094,1.498
				c-0.019,0.769-0.359,1.488-0.701,2.176c-0.985,1.977-2.067,3.943-2.537,6.102c-0.47,2.159-0.238,4.596,1.185,6.286
				c-0.249-1.753,0.441-3.539,1.519-4.944s2.515-2.485,3.961-3.507c1.446-1.021,2.933-2.012,4.159-3.289
				c0.592-0.617,1.128-1.314,1.397-2.126c0.269-0.812,0.239-1.756-0.238-2.466c-0.408-0.606-1.068-0.884-1.778-0.881
				c-0.713,0.003-1.36-0.096-2.092-0.19c-1.511-0.194-3.036-0.212-4.551-0.356c-2.805-0.267-5.624-0.39-8.442-0.379
				c-5.649,0.023-11.292,0.587-16.842,1.631c-3.045,0.573-6.062,1.29-9.041,2.144c-14.609,4.188-28.193,11.553-40.363,20.657
				c-2.21,1.653-4.405,3.394-6.039,5.618c-1.634,2.224-2.666,5.016-2.262,7.746c0.491,3.318,3.008,6.025,5.872,7.771
				c2.864,1.746,6.114,2.732,9.196,4.055c7.203,3.091,13.467,8.014,20.455,11.566c6.988,3.552,15.367,5.674,22.628,2.719
				c5.759-2.344,9.845-7.457,13.665-12.363C98.023,131.819,107.609,119.458,113.422,105.185z"/>
			<path style="fill:#2E383A;" d="M220.842,53.869c-1.487-2.325-4.098-3.753-6.791-4.359c-2.693-0.606-5.491-0.478-8.243-0.275
				c-15.156,1.121-30.239,4.481-44.009,10.91c-2.807,1.311-5.555,2.75-8.228,4.317c-4.872,2.855-9.501,6.134-13.777,9.825
				c-2.133,1.841-4.178,3.785-6.12,5.827c-1.049,1.103-2.187,2.118-3.2,3.256c-0.49,0.551-0.913,1.051-1.454,1.517
				c-0.537,0.463-0.854,1.107-0.763,1.832c0.106,0.849,0.703,1.581,1.439,2.017c0.736,0.436,1.598,0.61,2.45,0.687
				c1.763,0.159,3.535-0.069,5.296-0.248c1.761-0.179,3.555-0.307,5.29,0.046c1.735,0.353,3.428,1.247,4.391,2.733
				c-0.036-2.209-1.461-4.2-3.232-5.52c-1.771-1.32-3.878-2.094-5.919-2.938c-0.71-0.294-1.439-0.614-1.958-1.182
				c-1.637-1.791,0.845-2.868,2.105-3.817c1.845-1.391,3.767-2.683,5.778-3.824c6.095-3.459,13.192-5.516,20.138-4.586
				c4.29,0.575,8.346,2.249,12.54,3.322c4.194,1.072,8.801,1.502,12.72-0.336c-3.959-0.202-7.892-0.915-11.67-2.117
				c-1.52-0.483-3.231-1.282-3.559-2.843c-0.258-1.231,0.518-2.496,1.572-3.182c1.054-0.686,2.335-0.91,3.58-1.086
				c6.255-0.885,12.629-0.924,18.894-0.115c2.368,0.305,4.837,0.783,6.68,2.301c2.111,1.738,3.038,4.602,3.026,7.336
				c-0.012,2.734-0.845,5.392-1.722,7.982c-0.803,2.369-2.386,5.209-4.867,4.886c-1.166-0.152-2.094-1.008-3.003-1.753
				c-3.891-3.189-8.905-4.98-13.936-4.978c1.407,1.438,3.344,2.198,5.18,3.023c1.835,0.826,3.714,1.837,4.762,3.554
				c1.048,1.717,0.888,4.321-0.832,5.365c-1.419,0.862-3.238,0.387-4.822-0.111c-5.466-1.719-10.932-3.438-16.399-5.157
				c5.933,2.677,11.735,5.643,17.38,8.884c1.977,1.135,4.113,2.536,4.632,4.756c0.537,2.296-0.973,4.693-3.015,5.873
				c-2.042,1.18-4.491,1.39-6.849,1.425c-17.897,0.266-34.981-7.92-52.865-8.676c13.755,6.953,29.1,9.985,44.226,12.944
				c6.102,1.193,12.541,2.368,18.424,0.357c7.417-2.536,12.346-9.637,15.286-16.904c2.94-7.266,4.434-15.091,7.839-22.152
				c1.457-3.021,3.262-5.898,4.276-9.095C222.527,60.389,222.649,56.694,220.842,53.869z"/>
			<path style="fill:#2E383A;" d="M133.913,162.134c-1.007-0.385-1.535-1.467-1.968-2.455c-3.829-8.743-7.657-17.486-11.486-26.229
				c1.238,11.724,7.853,22.712,7.14,34.48c-0.113,1.86-0.558,3.946-2.143,4.927c-1.562,0.967-3.72,0.412-5.045-0.859
				c-1.635-1.568-2.927-4.492-1.983-6.705c0.43-1.008,1.312-1.834,2.372-2.109c1.061-0.275,2.277,0.045,3,0.869
				c-0.381-1.368-0.792-2.741-1.476-3.986c-0.683-1.245-1.666-2.366-2.944-2.984c-1.919-0.928-4.397-0.53-5.93,0.951
				c-2.352,2.274-1.692,6.004-0.19,8.55c-2.505-0.452-5.166,1.614-5.35,4.153c-0.184,2.539,2.152,4.967,4.696,4.881
				c-1.225-1.191-0.304-3.6,1.367-3.954c1.672-0.353,3.38,1.061,3.693,2.74c0.313,1.68-0.53,3.421-1.806,4.558
				c-2.124,1.894-5.471,2.26-7.954,0.87c-2.559-1.432-3.94-4.331-4.635-7.18c-1.737-7.122-0.142-14.585,1.454-21.74
				c-1.507,3.929-3.014,7.858-4.521,11.786c-0.474,1.236-1.041,2.579-2.221,3.178c-1.838,0.934-3.996-0.438-5.435-1.915
				c-3.625-3.719-6.036-8.602-6.786-13.74c-2.281,7.643-0.299,14.922,3.32,21.889c3.013,5.8,7.734,10.913,13.802,13.34
				c5.27,2.108,11.308,2.053,16.663,0.17c5.355-1.883,10.021-5.526,13.435-10.06c4.172-5.541,6.512-12.941,4.345-19.53
				c0.226,1.406,0.445,2.89-0.063,4.221C136.757,161.583,135.244,162.643,133.913,162.134z"/>
			<path style="fill:#2E383A;" d="M185.789,129.077c-0.116,2.058-0.844,4.51-2.843,5.012c-1.284,0.322-2.593-0.318-3.762-0.94
				c-3.716-1.975-7.431-3.95-11.147-5.924c5.9,4.351,12.003,8.934,15.367,15.447c1.346,2.605,2.206,5.699,1.216,8.459
				c-0.961,2.678-3.727,4.599-6.572,4.565c-1.709-0.021-3.488-0.78-4.354-2.253c-0.866-1.473-0.506-3.661,0.987-4.492
				c1.493-0.831,3.769,0.383,3.627,2.085c1.976-1.605,2.145-4.97,0.339-6.765c-1.805-1.795-5.169-1.606-6.762,0.379
				c-0.539-2.906-2.489-6.154-5.756-6.326c-2.128-0.112-4.26,1.215-5.098,3.175c-0.559,1.306-0.564,2.797-0.262,4.184
				c0.302,1.388,0.893,2.694,1.503,3.976c0.005-1.096,0.712-2.136,1.693-2.624c0.981-0.489,2.188-0.444,3.174,0.034
				c2.165,1.05,3.109,4.104,2.905,6.36c-0.165,1.829-1.429,3.664-3.242,3.96c-1.839,0.3-3.544-0.981-4.85-2.31
				c-8.262-8.41-10.484-21.042-17.246-30.699c2.851,9.109,5.701,18.218,8.551,27.327c0.322,1.029,0.634,2.192,0.127,3.143
				c-0.67,1.257-2.508,1.451-3.764,0.78c-1.257-0.671-2.065-1.934-2.818-3.143c2.69,6.393,9.313,10.439,16.097,11.881
				c5.552,1.18,11.464,0.866,16.739-1.229c5.275-2.095,9.867-6.016,12.459-11.066c2.985-5.815,3.19-12.771,1.656-19.124
				c-1.843-7.63-5.126-14.423-11.863-18.692C184.697,118.625,186.083,123.892,185.789,129.077z"/>
			<path style="fill:#2E383A;" d="M105.106,79.738c1.328-0.311,3.413,1.048,4.455,1.771c1.063,0.738,1.903,1.694,2.885,2.525
				c0.421,0.356,1.179-0.124,0.918-0.659c-0.769-1.582-2.218-2.755-3.723-3.62c-1.408-0.809-3.308-1.68-4.924-1.056
				C104.032,78.964,104.432,79.896,105.106,79.738z"/>
			<path style="fill:#2E383A;" d="M118.314,81.839c0.195-1.271,0.201-2.545,0.519-3.799c0.311-1.229,0.993-3.623,2.199-4.26
				c0.613-0.324,0.303-1.289-0.389-1.039c-1.629,0.589-2.49,2.494-3.021,4.029c-0.568,1.64-0.891,3.477-0.433,5.175
				C117.344,82.519,118.23,82.384,118.314,81.839z"/>
		</g>
	</g>
	<g>
		<path style="fill:#F9D2DE;" d="M342.772,78.891c-20.006,9.406-40.819,22.747-46.713,44.054
			c-3.961,14.32-0.264,29.769,6.101,43.194c5.963,12.578,15.156,24.722,28.406,28.989c12.494,4.023,26.148,0.294,38.189-4.933
			c20.425-8.867,38.863-22.025,54.69-37.688c12.878-12.744,24.469-28.011,27.385-45.892c3.353-20.562-6.991-42.68-28.711-44.494
			C393.986,59.772,368.129,66.97,342.772,78.891z"/>
		<g>
			<path style="fill:#2E383A;" d="M366.244,144.392c3.762-7.08,7.525-14.159,11.287-21.239c1.971-3.71,4.032-7.528,7.318-10.145
				c1.875-1.493,4.308-2.865,4.618-5.242c0.188-1.436-0.497-2.847-0.52-4.295c-0.025-1.624,0.776-3.13,1.513-4.577
				c0.737-1.447,1.451-3.023,1.235-4.633c-0.11-0.823-0.569-1.625-1.2-2.157c-0.784-0.257-1.707-0.226-2.465,0.113
				c-1.483,0.662-2.449,2.098-3.292,3.486c-0.844,1.388-1.704,2.861-3.099,3.693c-1.243,0.742-2.804,0.901-3.927,1.815
				c-1.859,1.513-1.747,4.304-2.032,6.684c-0.499,4.171-2.665,7.931-4.785,11.558c-4.046,6.922-8.091,13.843-12.136,20.765
				c-1.567,2.681-3.162,5.435-3.698,8.494c-0.34,1.94-0.17,4.047,0.617,5.827c1.928-0.266,3.81-1.229,5.282-2.538
				C363.281,149.939,364.786,147.135,366.244,144.392z"/>
			<path style="fill:#2E383A;" d="M328.287,110.91c6.149-1.874,11.763-5.163,17.735-7.543c-7.475,2.722-15.226,5.486-23.161,4.921
				c-3.432-0.244-7.203-1.406-8.826-4.44c-1.54-2.882-0.321-6.905,2.559-8.447c1.868-1,4.48-0.843,5.798,0.816
				c1.318,1.66,0.422,4.71-1.686,4.935c3.443,0.033,6.558-3.217,6.379-6.656c-0.179-3.438-3.615-6.348-7.036-5.958
				c3.559-1.28,5.927-5.26,5.352-8.999c-0.575-3.738-4.03-6.824-7.809-6.974c2.251,3.948,2.343,9.045,0.235,13.071
				c-1.311,2.505-3.656,4.691-6.476,4.893c-3.236,0.232-6.16-2.231-7.591-5.143c-1.975-4.017-1.642-9.131,1.026-12.725
				c1.269-1.71,3.483-3.908,5.728-2.399c1.102,0.74,1.601,2.265,1.15,3.513c1.422-1.013,2.309-2.752,2.248-4.497
				c-0.06-1.745-1.086-3.436-2.627-4.256c-1.538-0.818-3.502-0.81-4.801-1.971c-1.022-0.914-1.359-2.375-1.189-3.696
				c0.22-1.71,2.039-2.907,3.542-3.431c1.737-0.606,3.637-0.699,5.46-0.603c6.561,0.347,13.059,1.874,19.088,4.484
				c1.89,0.818,3.927,1.964,4.466,3.952c0.652,2.404-1.411,4.899-3.825,5.511c-2.415,0.612-4.961-0.192-7.21-1.262
				c0.334,3.47,4.361,5.686,7.796,5.091c3.435-0.595,6.177-3.23,8.118-6.125c-0.642,1.247,0.08,2.989,1.415,3.417
				c1.335,0.428,2.935-0.569,3.139-1.956c-1.434,0.294-2.142-2.185-0.911-2.978c1.231-0.793,3.013,0.181,3.457,1.576
				c0.444,1.395-0.111,2.925-0.926,4.141c-2.285,3.411-6.77,5.186-10.771,4.262c1.549,2.515,5.186,2.669,8.026,1.855
				c2.839-0.814,5.609-2.307,8.552-2.057c2.66,0.226,4.976,1.848,7.067,3.507c0.732,0.581,1.581,1.074,1.821,2.022
				c0.18,0.712,0.025,1.407-0.255,2.07c-0.536,1.273-1.522,2.438-1.499,3.865c0.019,1.188,0.59,2.355,1.517,3.098
				c-0.297-0.94-0.441-2.038,0.114-2.853c0.362-0.532,0.976-0.854,1.608-0.974c0.632-0.12,1.284-0.058,1.919,0.049
				c0.926,0.157,1.863,0.425,2.6,1.007c0.737,0.582,1.238,1.536,1.067,2.46c-0.14,0.757-0.694,1.373-1.308,1.836
				c-0.614,0.463-1.308,0.816-1.906,1.299c-1.693,1.367-2.44,3.799-1.804,5.881c-0.304-1.32,0.783-2.669,2.089-3.026
				c1.052-0.288,2.164-0.064,3.148,0.356c1.031,0.44,0.975,1.726,0.661,2.7c-0.452,1.4-1.682,2.374-2.617,3.51
				c-2.161,2.627-2.757,6.165-3.314,9.521c-0.557,3.356-1.242,6.898-3.52,9.425c3.898-1.399,7.407-4.441,8.41-8.459
				c0.566-2.268,0.319-4.704,1.074-6.916c0.935-2.744,3.27-4.757,5.65-6.412c0.672-0.467,1.373-0.933,1.836-1.608
				c0.724-1.054,0.36-2.503-0.087-3.605c-0.409-1.011-1.242-1.781-1.826-2.691c-1.433-2.231-2.958-4.402-4.568-6.508
				c-3.977-5.201-8.473-10.004-13.38-14.337c-9.821-8.671-21.298-15.474-33.641-19.873c-6.948-2.476-14.171-4.187-21.5-5.034
				c-4.468-0.516-9.504-0.556-12.838,2.464c-3.235,2.93-3.777,7.916-2.771,12.163s3.28,8.066,4.952,12.098
				c3.415,8.232,4.307,17.322,7.554,25.621c1.804,4.611,4.484,9.105,8.672,11.747C315.076,113.068,322.137,112.784,328.287,110.91z"
				/>
			<path style="fill:#2E383A;" d="M480.183,153.377c0.817-4.423-1.864-8.687-4.652-12.217c-4.572-5.79-9.824-11.036-15.582-15.645
				c-10.229-8.189-22.049-14.377-34.588-18.175c-6.266-1.898-12.714-3.199-19.229-3.848c-2.638-0.263-5.287-0.419-7.938-0.465
				c-1.082-0.019-2.174-0.322-3.249-0.139c-1.173,0.2-2.597,0.651-3.113,1.821c-0.331,0.749-0.359,1.59-0.403,2.407
				c-0.156,2.894-0.642,5.939-2.485,8.177c-1.486,1.805-3.687,2.875-5.32,4.549c-2.891,2.965-3.635,7.549-2.777,11.6
				c0.953-3.266,3.606-5.71,6.168-7.948c2.562-2.238,5.259-4.604,6.358-7.824c0.475-1.392,0.658-2.951,1.611-4.071
				c0.663-0.78,1.728-1.503,2.644-0.857c0.874,0.616,1.649,1.445,1.957,2.491c0.383,1.299-0.193,2.933-1.476,3.368
				c2.105-0.553,3.782-2.466,4.055-4.625c0.096-0.763,0.032-1.539,0.103-2.305c0.071-0.766,0.305-1.561,0.875-2.078
				c0.696-0.631,1.771-0.706,2.653-0.385c0.883,0.321,1.603,0.978,2.223,1.683c0.425,0.483,0.821,1.006,1.051,1.606
				c0.23,0.601,0.279,1.293,0.016,1.88c-0.402,0.9-1.412,1.355-2.368,1.597c1.119,0.398,2.413,0.271,3.434-0.338
				c1.226-0.731,1.699-2.182,2.5-3.307c0.417-0.586,0.927-1.084,1.628-1.305c0.932-0.294,1.798,0.169,2.677,0.486
				c2.511,0.907,5.107,2.025,6.697,4.169c1.76,2.372,1.945,5.513,2.745,8.357c0.8,2.843,2.843,5.857,5.797,5.853
				c-2.889-2.918-3.736-7.666-2.035-11.403c0.606-1.333,1.616-2.609,3.036-2.965c1.42-0.355,3.186,0.649,3.158,2.113
				c-0.028,1.464-2.509,2.165-3.013,0.79c-1.073,0.902-1.081,2.788-0.015,3.698c1.066,0.911,2.927,0.609,3.651-0.592
				c-1.442,3.173-2.243,6.891-0.944,10.126c1.299,3.234,5.301,5.496,8.428,3.956c-2.093-1.35-4.115-3.095-4.863-5.47
				c-0.749-2.375,0.29-5.442,2.678-6.151c1.975-0.586,4.02,0.544,5.71,1.722c5.39,3.758,10.103,8.483,13.847,13.882
				c1.04,1.5,1.96,3.166,2.357,4.962c0.343,1.554,0.281,3.731-1.058,4.817c-1.034,0.839-2.454,1.321-3.769,0.931
				c-1.671-0.495-2.695-2.17-4.2-3.048c-1.508-0.88-3.485-0.864-5.001,0.002c-1.516,0.865-2.529,2.534-2.644,4.276
				c0.826-1.039,2.385-1.416,3.593-0.868c2.463,1.117,1.757,4.156,0.97,6.134c-1.656,4.158-5.831,7.13-10.286,7.561
				c-3.23,0.312-6.861-0.88-8.365-3.755c-1.31-2.505-0.683-5.649,0.759-8.081c2.318-3.91,6.702-6.51,11.244-6.67
				c-2.115-3.136-6.555-4.453-10.037-2.978c-3.482,1.475-5.625,5.582-4.843,9.282c-1.466-3.115-5.747-4.509-8.766-2.854
				c-3.019,1.655-4.147,6.014-2.309,8.925c-0.916-1.911,1.208-4.277,3.313-4.028c2.105,0.249,3.611,2.389,3.742,4.504
				c0.202,3.261-2.58,6.413-5.841,6.617c-3.434,0.215-6.404-2.383-8.416-5.175c-4.651-6.453-6.374-14.5-7.987-22.29
				c1.114,6.331,1.266,12.836,2.904,19.052s5.108,12.373,10.884,15.195c4.449,2.174,9.681,2.092,14.552,1.203
				c8.767-1.599,16.969-5.617,25.767-7.039c4.309-0.696,8.753-0.769,12.895-2.145C475.434,160.751,479.391,157.669,480.183,153.377z
				"/>
			<path style="fill:#2E383A;" d="M348.263,157.766c-1.335,0.846-2.751,1.565-4.224,2.14c-1.543,0.602-3.47,0.986-4.714-0.107
				c-0.946-0.831-1.131-2.239-1.009-3.492c0.122-1.253,0.486-2.494,0.386-3.749c-0.1-1.255-0.843-2.594-2.079-2.833
				c-0.578,1.476-1.168,2.972-2.113,4.244c-0.945,1.273-2.306,2.318-3.877,2.532c-2.663,0.364-5.218-1.915-5.705-4.558
				c-0.488-2.643,0.752-5.384,2.664-7.273c2.306-2.278,5.833-3.512,8.896-2.453c3.063,1.058,5.141,4.785,3.844,7.755
				c2.595-1.219,3.963-4.556,2.971-7.245c-0.432-1.172-1.258-2.291-1.102-3.53c0.234-1.866,2.401-2.684,4.147-3.382
				c2.645-1.058,5.117-2.75,6.63-5.163c1.513-2.413,1.93-5.611,0.627-8.143c-1.303-2.533-4.493-4.085-7.174-3.123
				c1.961,0.017,3.562,1.853,3.845,3.794c0.283,1.941-0.483,3.894-1.531,5.552c-1.457,2.307-3.491,4.247-5.865,5.593
				c-1.6,0.907-3.772,1.485-5.155,0.272c-0.91-0.799-1.145-2.122-1.119-3.333c0.026-1.21,0.254-2.432,0.038-3.623
				c-0.544-2.988-4.31-4.875-7.028-3.523c2.424,0.793,3.659,3.733,3.182,6.238c-0.477,2.506-2.278,4.569-4.305,6.117
				c-2.733,2.088-6.001,3.469-9.403,3.976c-1.261,0.188-2.578,0.253-3.785-0.159c-1.207-0.411-2.288-1.382-2.526-2.634
				c-0.311-1.633,0.826-3.18,2.05-4.305c1.751-1.61,3.81-2.854,5.581-4.442c1.771-1.588,3.297-3.66,3.47-6.033
				c0.174-2.372-1.439-4.966-3.806-5.2c0.092,1.429,0.181,2.887-0.181,4.273c-0.362,1.386-1.257,2.712-2.598,3.213
				c-1.341,0.502-3.104-0.091-3.572-1.445c-0.383-1.107,0.141-2.31,0.735-3.319c1.711-2.905,4.12-5.395,6.967-7.201
				c-2.078-0.269-4.203,0.425-5.933,1.607c-1.73,1.182-3.1,2.822-4.266,4.564c-4.188,6.257-5.909,14.118-4.719,21.552
				c0.648,4.05,2.321,8.208,5.725,10.497c2.449,1.647,5.655,2.239,7.558,4.496c1.621,1.923,2.194,4.932,4.532,5.859
				c1.448,0.574,3.092,0.105,4.634,0.327c2.189,0.316,3.926,1.968,5.976,2.799c3.503,1.42,7.627,0.258,10.659-1.999
				c1.506-1.121,2.806-2.489,3.978-3.95c0.578-0.72,2.888-3.061,2.43-4.025C350.698,155.726,349.582,156.93,348.263,157.766z"/>
			<path style="fill:#2E383A;" d="M410.606,167.846c0.096-2.093-0.431-4.266-1.752-5.892c-0.04,3.371-0.893,6.729-2.465,9.712
				c-0.546,1.036-1.295,2.114-2.438,2.37c-1.397,0.313-2.829-0.875-3.106-2.28c-0.278-1.405,0.379-2.864,1.368-3.899
				c0.989-1.036,2.276-1.726,3.54-2.4c-1.443-1.891-4.498-1.9-6.425-0.505c-1.927,1.395-2.888,3.782-3.308,6.123
				c-0.42,2.341-0.397,4.747-0.846,7.083c-0.314,1.632-1.032,3.413-2.585,4.006c-1.191,0.455-2.585,0.046-3.569-0.765
				c-0.984-0.811-1.621-1.965-2.124-3.137c-1.357-3.16-1.899-6.666-1.56-10.089c0.252-2.538,1.06-5.155,2.941-6.878
				c1.881-1.723,5.031-2.217,6.979-0.572c-0.279-3.024-3.864-5.235-6.691-4.128c-1.127,0.442-2.047,1.278-3.063,1.936
				c-1.016,0.658-2.266,1.155-3.423,0.8c-1.759-0.539-2.409-2.69-2.478-4.528c-0.102-2.727,0.479-5.477,1.676-7.929
				c0.86-1.762,2.12-3.441,3.919-4.22c1.799-0.78,4.203-0.382,5.248,1.277c-0.591-2.786-3.588-4.685-6.428-4.462
				c-2.84,0.223-5.341,2.258-6.598,4.813c-1.258,2.556-1.398,5.548-0.908,8.354c0.323,1.852,0.766,4.126-0.698,5.305
				c-0.973,0.783-2.358,0.67-3.582,0.918c-2.809,0.57-4.929,3.488-4.602,6.336c1.845-2.665,6.108-2.855,8.618-0.805
				c2.51,2.05,3.314,5.699,2.589,8.857c-0.602,2.619-2.282,5.115-4.787,6.089c-2.504,0.974-5.786-0.002-6.876-2.458
				c-0.643-1.449-0.469-3.156,0.117-4.629c0.586-1.473,1.549-2.76,2.5-4.028c-0.853-0.926-2.383-0.854-3.503-0.279
				s-1.985,1.536-2.987,2.299c-1.002,0.762-2.297,1.345-3.501,0.977c-1.584-0.484-2.27-2.325-2.569-3.954
				c-0.285-1.555-0.418-3.137-0.399-4.718c0.018-1.562,0.457-3.144,0.455-4.671c-1.061,0.117-1.838,3.313-2.147,4.183
				c-0.627,1.765-1.107,3.59-1.27,5.46c-0.327,3.765,0.853,7.885,3.901,10.118c1.784,1.307,4.103,1.917,5.522,3.613
				c1,1.195,1.465,2.84,2.714,3.771c2.017,1.502,4.879,0.408,7.366,0.776c2.92,0.433,5.108,2.848,7.797,4.067
				c3.736,1.693,8.153,0.93,11.939-0.647c6.95-2.895,12.734-8.491,15.855-15.342C409.834,171.967,410.51,169.939,410.606,167.846z"
				/>
			<path style="fill:#2E383A;" d="M386.316,83.123c0.833,2.069,1.082,4.782,1.061,7.007c-0.006,0.684,1.104,0.835,1.216,0.134
				c0.422-2.636,1.045-4.834,0.146-7.484c-0.765-2.256-2.113-5.422-4.182-6.717c-0.428-0.268-0.943,0.111-0.951,0.572
				C383.567,79.019,385.459,80.994,386.316,83.123z"/>
			<path style="fill:#2E383A;" d="M393.815,93.721c1.882-1.187,4.321-2.402,6.519-2.78c2.262-0.39,4.937,0.182,6.943-1.104
				c0.388-0.249,0.44-0.886-0.014-1.109c-2.189-1.08-5.592-0.563-7.912-0.028c-2.727,0.628-4.268,2.313-6.29,4.058
				C392.524,93.221,393.236,94.086,393.815,93.721z"/>
		</g>
	</g>
	<g>
		<path style="fill:#F9D2DE;" d="M391.796,299.351c-31.368-7.939-66.808,3.411-87.722,28.102
			c-20.914,24.69-26.279,61.519-13.274,91.147c8.341,19.003,25.174,35.528,45.783,37.965c16.56,1.958,32.881-5.24,46.873-14.312
			c24.378-15.807,47.899-38.108,65.982-60.857c16.04-20.18-4.836-47.332-20.708-61.851
			C418.277,309.982,405.557,302.833,391.796,299.351z"/>
		<g>
			<path style="fill:#2E383A;" d="M363.137,363.779c-0.196-0.763-1.036-2.842-2.108-3.898c1.065-1.713,1.465-3.775,0.605-5.752
				c-0.373-0.857-1.379-2.179-2.497-2.911c-1.118,0.732-2.124,2.053-2.497,2.911c-0.86,1.977-0.46,4.039,0.605,5.752
				c-1.072,1.056-1.912,3.135-2.108,3.898c-1.012,3.944,0.324,8.308,1.235,12.143c0.376,1.584,0.909,3.129,1.092,4.747
				c0.286,2.526,0.176,5.058,0.285,7.592c0.077,1.784-0.374,5.38,0.89,7.181c0.21-0.299,0.373-0.649,0.499-1.031
				c0.126,0.382,0.288,0.731,0.499,1.031c1.264-1.801,0.812-5.397,0.889-7.181c0.11-2.534,0-5.067,0.285-7.592
				c0.183-1.618,0.716-3.163,1.092-4.747C362.813,372.087,364.148,367.723,363.137,363.779z"/>
			<path style="fill:#2E383A;" d="M296.909,359.069c3.313-0.483,6.639-0.784,9.984-0.785c2.788,0,5.812,0.769,8.536,0.506
				c-0.696-1.094-2.246-1.769-3.45-2.204c-2.527-0.913-5.616-1.797-8.28-2.099c-3.125-0.354-6.048-0.136-9.044-1.313
				c-3.536-1.39-7.398-3.263-9.25-6.732c-1.344-2.516-4.413-12.367,1.628-11.439c3.453,0.53,6.049,6.303,1.909,7.776
				c1.489,0.508,3.076,0.877,4.571-0.152c2.772-1.907,1.678-5.524,0.276-7.83c-1.252-2.06-3.11-3.701-5.579-3.61
				c-1.312,0.048-2.129,0.509-3-0.758c-1.102-1.602-0.823-3.999-0.907-5.821c-0.146-3.184,0.094-6.395-0.553-9.559
				c-0.625-3.057-2.741-5.669-1.825-8.928c0.266-0.947,0.348-1.699,0.465-2.634c0.097-0.771,0.572-1.561,1.307-1.876
				c0.103-0.044,0.207-0.079,0.311-0.105c1.398-0.348,2.787,0.916,3.468,2.014c1.759,2.839,0.47,6.205,0.488,9.272
				c0.018,3.116,1.379,5.717,3.681,7.757c-0.122-1.344-0.879-2.612-0.863-4.056c0.022-1.958,1.027-3.214,2.264-4.597
				c1.214-1.356,1.631-2.874,1.423-4.68c-0.201-1.739-1.143-3.404-1.017-5.168c0.261-3.648,4.769-5.427,7.964-4.831
				c2.829,0.527,5.263,2.089,7.815,3.348c1.444,0.712,2.761,1.208,3.716,2.521c0.777,1.068,1.398,2.158,1.399,3.518
				c0.003,2.018-2.277,5.323-4.268,3.05c-0.832-0.95-0.944-2.524-0.546-3.684c-1.262,1.781-2.482,3.728-2.557,6.015
				c-0.15,4.622,4.004,7.885,8.461,6.789c2.873-0.706,4.477-2.657,6.199-4.865c0.565-0.724,1.544-1.415,2.447-1.643
				c1.221-0.31,2.054,0.679,2.789,1.498c3.667,4.087,5.858,7.925,5.085,13.472c-0.482,3.454,1.113,10.691,6.073,8.551
				c-0.745-0.759-1.739-1.388-2.235-2.488c-0.546-1.21-0.968-4.453,0.69-5.105c1.987-0.782,4.32,3.09,5.091,4.333
				c1.471,2.373,3.412,4.431,4.059,7.215c0.445,1.915,0.549,4.002-0.147,5.872c-0.675,1.815-3.47,2.18-5.063,1.663
				c-2.454-0.796-4.136-3.129-6.29-4.464c-1.679-1.041-3.855-2.254-5.868-1.4c-3.627,1.538-3.997,8.208-0.428,10.064
				c1.298,0.675,3.203,0.443,3.897-0.96c0.312-0.63,0.375-1.902-0.176-2.449c0.061,0.554-0.48,1.082-1.022,1.103
				c-1.938,0.075-1.567-3.028-0.73-3.948c1.383-1.52,3.431-0.74,4.65,0.472c1.62,1.612,3.326,3.21,5.26,4.442
				c2.921,1.861,5.706,5.049,9.043,6.129c9.42,3.05-1.022-17.766-1.929-19.873c-3.127-7.269-8.473-13.788-13.272-20.016
				c-4.314-5.598-9.576-10.371-15.365-14.423c-8.914-6.239-18.787-10.074-29.426-12.159c-3.51-0.688-6.858-1.007-10.416-1.314
				c-2.237-0.193-5.535-0.44-6.759,2.125c-0.859,1.799,1.286,4.064,2.064,5.624c1.158,2.323,0.575,5.134,1.164,7.659
				c1.139,4.881,3.493,9.504,4.923,14.323c1.538,5.184,1.081,9.761,0.112,14.979c-0.733,3.945-0.966,7.907-1.208,11.906
				c-0.196,3.237-0.168,7.035,1.599,9.919c1.205,1.967,4.479,3.519,6.618,4.111C290.312,360.082,293.441,359.575,296.909,359.069z"
				/>
			<path style="fill:#2E383A;" d="M446.682,290.606c-1.224-2.565-4.522-2.319-6.759-2.125c-3.558,0.307-6.906,0.626-10.416,1.314
				c-10.638,2.085-20.512,5.92-29.426,12.159c-5.789,4.052-11.051,8.825-15.365,14.423c-4.799,6.228-10.145,12.747-13.272,20.016
				c-0.906,2.107-11.349,22.922-1.929,19.873c3.338-1.081,6.122-4.268,9.044-6.129c1.934-1.232,3.639-2.83,5.26-4.442
				c1.219-1.212,3.267-1.992,4.65-0.472c0.837,0.921,1.208,4.023-0.73,3.948c-0.542-0.021-1.083-0.549-1.022-1.103
				c-0.551,0.547-0.488,1.819-0.176,2.449c0.694,1.403,2.598,1.635,3.897,0.96c3.569-1.856,3.199-8.526-0.428-10.064
				c-2.014-0.854-4.189,0.359-5.868,1.4c-2.155,1.335-3.837,3.668-6.29,4.464c-1.593,0.517-4.387,0.152-5.063-1.663
				c-0.696-1.87-0.592-3.957-0.147-5.872c0.647-2.784,2.588-4.842,4.059-7.215c0.77-1.242,3.104-5.114,5.091-4.333
				c1.657,0.652,1.235,3.895,0.69,5.105c-0.496,1.099-1.49,1.729-2.235,2.488c4.96,2.141,6.555-5.096,6.073-8.551
				c-0.773-5.547,1.418-9.385,5.085-13.472c0.735-0.819,1.569-1.808,2.789-1.498c0.902,0.229,1.882,0.919,2.447,1.643
				c1.721,2.208,3.326,4.159,6.199,4.865c4.457,1.096,8.611-2.168,8.461-6.789c-0.074-2.287-1.294-4.233-2.557-6.015
				c0.398,1.161,0.286,2.734-0.546,3.684c-1.99,2.273-4.27-1.032-4.268-3.05c0.002-1.361,0.622-2.45,1.399-3.518
				c0.955-1.313,2.272-1.809,3.716-2.521c2.552-1.259,4.987-2.821,7.815-3.348c3.195-0.596,7.703,1.183,7.964,4.831
				c0.126,1.764-0.816,3.429-1.017,5.168c-0.208,1.806,0.209,3.324,1.423,4.68c1.237,1.383,2.242,2.639,2.264,4.597
				c0.016,1.444-0.741,2.712-0.863,4.056c2.302-2.039,3.662-4.64,3.681-7.757c0.018-3.068-1.272-6.433,0.488-9.272
				c0.681-1.098,2.069-2.362,3.467-2.014c0.104,0.026,0.207,0.061,0.311,0.105c0.735,0.314,1.21,1.104,1.307,1.876
				c0.117,0.935,0.199,1.687,0.465,2.634c0.916,3.259-1.2,5.871-1.825,8.928c-0.647,3.164-0.407,6.375-0.553,9.559
				c-0.083,1.822,0.196,4.219-0.907,5.821c-0.871,1.266-1.688,0.806-3,0.758c-2.469-0.091-4.327,1.55-5.579,3.61
				c-1.402,2.306-2.496,5.923,0.275,7.83c1.495,1.029,3.082,0.66,4.571,0.152c-4.141-1.473-1.544-7.245,1.909-7.776
				c6.04-0.927,2.971,8.923,1.628,11.439c-1.853,3.469-5.714,5.342-9.25,6.732c-2.995,1.177-5.919,0.959-9.044,1.313
				c-2.663,0.302-5.753,1.187-8.28,2.099c-1.204,0.435-2.754,1.11-3.45,2.204c2.723,0.263,5.747-0.506,8.535-0.506
				c3.345,0.001,6.671,0.302,9.984,0.785c3.468,0.506,6.597,1.013,10.047,0.059c2.139-0.592,5.412-2.144,6.618-4.111
				c1.767-2.884,1.796-6.682,1.599-9.919c-0.243-4-0.476-7.961-1.208-11.906c-0.969-5.218-1.426-9.795,0.112-14.979
				c1.43-4.819,3.784-9.442,4.923-14.323c0.589-2.526,0.006-5.336,1.164-7.659C445.396,294.67,447.541,292.405,446.682,290.606z"/>
			<path style="fill:#2E383A;" d="M352.418,381.326c-2.946-3.397-8.482-3.6-11.537-0.168c-1.669,1.875-2.018,4.324-1.4,6.705
				c0.227,0.874,0.495,2.117,1.176,2.746c-0.346-4.055,4.515-8.317,8.466-6.172c2.736,1.486,3.237,5.168,2.645,7.899
				c-0.913,4.21-2.864,8.224-4.379,12.254c-1.644,4.374-4.17,7.84-7.376,11.233c-1.831,1.938-7.433,8.265-10.734,6.876
				c-2.009-0.845-1.542-5.008-2.287-6.732c-0.658-1.523-2.296-3.729-4.041-4.199c-0.375,0.832-0.032,2.175-0.022,3.049
				c0.027,2.305-0.081,4.446-0.768,6.669c-1.325,4.287-5.293,10.487-10.484,10.279c-2.434-0.098-5.583-1.857-4.581-4.685
				c1.12-3.161,5.003-4.699,7.487-6.513c2.88-2.102,4.534-4.492,4.976-8.095c0.362-2.956-0.769-5.784-0.329-8.708
				c0.859-5.697,6.626-12.055,12.726-11.994c-3.01-2.815-8.97-1.725-12.101,0.096c-3.127,1.819-5.233,4.418-5.2,8.036
				c-0.44-1.484-1.824-3.41-3.015-4.346c-1.226-0.963-2.46-0.844-3.914-0.885c4.218,2.503,4.495,10.854,3.185,14.84
				c-1.51,4.596-6.749,11.125-12.426,9.627c-5.096-1.345-4.62-7.983-2.503-11.53c1.458-2.444,5.401-5.003,8.128-2.946
				c0.187-1.304-0.766-2.726-1.75-3.487c-1.818-1.406-3.507-1.297-5.544-0.517c-1.208,0.462-3.375,1.725-4.495,0.464
				c-1.206-1.358-0.328-4.484,0.393-5.863c0.998-1.909,2.971-2.211,4.695-3.294c2.375-1.493,3.754-4.494,3.729-7.285
				c-0.03-3.349-2.381-7.403-6.156-6.007c1.365,1.588,1.813,3.971,0.439,5.697c-0.937,1.176-2.891,2.017-4.162,0.81
				c-1.388-1.317-0.389-3.902,0.172-5.372c2.512-6.589,7.934-10.117,13.786-13.447c2.756-1.568,5.788-2.968,8.844-3.868
				c1.161-0.342,2.634-0.241,3.686-0.695c-2.503-0.873-5.902-0.126-8.393,0.383c-4.585,0.936-9.048,1.934-13.166,4.253
				c-4.174,2.351-7.944,5.843-10.123,10.15c-2.561,5.063-2.966,11.496-2.756,17.058c0.198,5.259,0.958,10.547,2.453,15.602
				c1.028,3.478,2.595,6.714,3.77,10.131c1.519,4.413,3.061,8.888,6.803,11.964c1.656,1.361,3.083,2.164,4.159,4.097
				c0.972,1.748,1.793,3.651,2.044,5.643c0.177,1.409-0.009,3.182,1.752,3.425c1.589,0.22,3.27-1.333,4.32-2.279
				c1.887-1.701,3.414-3.43,5.876-4.33c2.066-0.755,4.304-0.717,6.308-1.64c5.664-2.609,9.718-8.124,14.801-11.645
				c3.273-2.267,6.294-4.162,8.843-7.285c2.229-2.731,4.288-5.753,5.901-8.894c2.543-4.95,4.519-10.711,4.968-16.259
				c0.105-1.293,0.111-2.593-0.025-3.862C355.009,385.768,354.169,383.346,352.418,381.326z"/>
			<path style="fill:#2E383A;" d="M422.087,366.434c-4.118-2.319-8.581-3.317-13.166-4.253c-2.492-0.509-5.891-1.256-8.394-0.383
				c1.052,0.454,2.525,0.353,3.686,0.695c3.056,0.901,6.088,2.3,8.844,3.868c5.852,3.33,11.275,6.859,13.786,13.447
				c0.56,1.47,1.559,4.054,0.172,5.372c-1.271,1.207-3.226,0.366-4.162-0.81c-1.374-1.725-0.926-4.109,0.439-5.697
				c-3.776-1.396-6.126,2.658-6.156,6.007c-0.025,2.79,1.354,5.792,3.729,7.285c1.724,1.084,3.697,1.385,4.695,3.294
				c0.721,1.379,1.599,4.505,0.393,5.863c-1.12,1.261-3.287-0.002-4.495-0.464c-2.038-0.78-3.726-0.888-5.544,0.517
				c-0.984,0.761-1.936,2.184-1.75,3.487c2.727-2.057,6.67,0.502,8.128,2.946c2.117,3.548,2.593,10.185-2.503,11.53
				c-5.677,1.498-10.916-5.031-12.426-9.627c-1.31-3.986-1.033-12.337,3.185-14.84c-1.454,0.04-2.688-0.079-3.914,0.885
				c-1.192,0.936-2.575,2.862-3.015,4.346c0.034-3.618-2.073-6.218-5.2-8.036c-3.131-1.821-9.091-2.912-12.101-0.096
				c6.1-0.061,11.867,6.297,12.726,11.994c0.441,2.925-0.691,5.753-0.329,8.708c0.442,3.604,2.096,5.993,4.976,8.095
				c2.483,1.813,6.367,3.351,7.487,6.513c1.002,2.828-2.148,4.588-4.581,4.685c-5.192,0.208-9.16-5.992-10.484-10.279
				c-0.687-2.223-0.795-4.365-0.768-6.669c0.01-0.875,0.354-2.217-0.022-3.049c-1.744,0.47-3.383,2.676-4.041,4.199
				c-0.745,1.725-0.277,5.887-2.287,6.732c-3.301,1.388-8.903-4.939-10.734-6.876c-3.206-3.393-5.732-6.858-7.376-11.233
				c-1.515-4.03-3.466-8.044-4.379-12.254c-0.592-2.731-0.091-6.413,2.645-7.899c3.951-2.145,8.813,2.117,8.466,6.172
				c0.68-0.629,0.949-1.872,1.176-2.746c0.618-2.381,0.268-4.83-1.4-6.705c-3.055-3.432-8.591-3.23-11.537,0.168
				c-1.752,2.02-2.591,4.442-2.863,6.982c-0.136,1.27-0.13,2.569-0.025,3.862c0.449,5.549,2.425,11.31,4.968,16.259
				c1.614,3.141,3.672,6.163,5.901,8.894c2.55,3.124,5.57,5.018,8.843,7.285c5.084,3.521,9.137,9.036,14.801,11.645
				c2.004,0.923,4.242,0.885,6.308,1.64c2.461,0.9,3.989,2.63,5.876,4.33c1.05,0.946,2.731,2.499,4.32,2.279
				c1.761-0.243,1.575-2.017,1.752-3.425c0.25-1.992,1.071-3.895,2.044-5.643c1.076-1.934,2.503-2.736,4.159-4.097
				c3.741-3.076,5.283-7.551,6.803-11.964c1.176-3.416,2.742-6.653,3.771-10.131c1.495-5.055,2.254-10.343,2.452-15.602
				c0.21-5.562-0.194-11.995-2.756-17.058C430.03,372.277,426.26,368.785,422.087,366.434z"/>
			<path style="fill:#2E383A;" d="M356.087,350.799c-0.015,0.564,0.812,0.544,0.864,0c0.464-4.904-1.164-10.476-5.139-13.65
				c-0.548-0.438-1.224,0.224-0.772,0.772C354.242,341.797,356.224,345.643,356.087,350.799z"/>
			<path style="fill:#2E383A;" d="M362.186,350.799c-0.137-5.156,1.845-9.003,5.047-12.878c0.452-0.548-0.224-1.209-0.772-0.772
				c-3.975,3.175-5.603,8.746-5.139,13.65C361.374,351.343,362.201,351.363,362.186,350.799z"/>
		</g>
	</g>
	<g>
		<path style="fill:#F9D2DE;" d="M184.12,318.256c-21.823-13.565-49.762-16.821-74.119-8.637
			c-24.357,8.184-44.662,27.65-53.867,51.64c-6.185,16.119-7.427,34.298-2.303,50.786c5.124,16.487,16.83,31.063,32.38,38.565
			c16.699,8.057,36.302,7.63,54.507,4.12c21.721-4.189,42.632-12.542,61.261-24.472c20.734-13.279,33.244-31.56,22.75-55.334
			C214.66,352.112,206.388,332.097,184.12,318.256z"/>
		<g>
			<path style="fill:#2E383A;" d="M62.77,339.132c0.022,0,0.043,0.005,0.065,0.004C62.809,339.123,62.787,339.126,62.77,339.132z"/>
			<path style="fill:#2E383A;" d="M200.878,339.136c0.022,0.001,0.044-0.004,0.066-0.004
				C200.926,339.126,200.905,339.123,200.878,339.136z"/>
			<path style="fill:#2E383A;" d="M232.91,293.929c-1.584-2.131-4.624-2.94-7.136-3.085c-4.288-0.247-8.894,1.331-12.969,2.462
				c-5.295,1.47-10.452,3.59-15.53,5.67c-6.162,2.524-12.075,5.781-17.486,9.665c-4.711,3.382-8.931,7.39-13.221,11.273
				c-7.425,6.722-14.556,13.555-21.065,21.184c-1.017,1.192-2.076,2.348-3.086,3.547c-0.841,0.999-1.931,2.028-2.56,3.174
				c-0.39,0.709-0.571,1.575-0.334,2.339c0.025,0.082,0.055,0.162,0.09,0.241c0.803,1.808,3.478,1.775,4.858,3.192
				c0.587,0.603,0.888,1.419,1.225,2.19c0.337,0.771,0.762,1.56,1.486,1.988c0.724,0.429,1.82,0.326,2.221-0.414
				c-0.723-0.075-1.158-0.877-1.198-1.603c-0.04-0.726,0.182-1.445,0.164-2.172c-0.034-1.351-0.883-2.555-1.07-3.894
				c-0.27-1.94,0.876-3.777,2.087-5.316c1.919-2.439,4.147-4.654,6.71-6.405c0.997-0.681,2.056-1.297,3.216-1.629
				c1.16-0.332,2.438-0.363,3.551,0.104c1.113,0.467,2.028,1.479,2.2,2.674c0.172,1.195-0.515,2.509-1.658,2.896
				c-1.143,0.388-2.584-0.367-2.771-1.56c-1.306,1.399-0.833,3.868,0.65,5.078c1.483,1.21,3.618,1.332,5.463,0.822
				c3.938-1.088,6.904-5.005,6.885-9.09c-0.019-4.085-3.022-7.974-6.97-9.025c-0.751-0.2-1.576-0.333-2.125-0.883
				c-1.327-1.331,0.991-2.629,1.837-3.334c1.603-1.334,3.24-2.628,4.908-3.879c2.706-2.029,5.497-3.944,8.373-5.724
				c2.75-1.701,5.393-3.598,8.206-5.18c3.096-1.74,6.403-3.06,9.561-4.679c3.774-1.935,14.071-6.563,14.808,1.013
				c0.249,2.561-0.822,5.208-1.524,7.614c-0.668,2.29-1.461,4.52-2.478,6.684c-0.714,1.519-1.664,3.176-2.945,4.293
				c-1.395,1.216-2.947,0.023-4.5-0.25c-1.221-0.215-2.369-0.011-3.454,0.589c-2.687,1.484-4.029,5.616-1.587,7.989
				c0.806,0.784,2.464,1.331,3.535,0.793c-1.509-1.044-1.937-2.858-0.092-3.993c2.664-1.639,5.332,0.756,5.727,3.337
				c0.345,2.256-0.47,4.199-2.251,5.584c-0.482,0.375-1.072,0.906-1.717,0.917c0.032,0.011,0.044,0.035,0.01,0.004
				c-1.412,0.099-2.849-0.505-4.25-0.622c-2.512-0.21-5.375,0.249-7.084,2.28c-1.833,2.178-1.703,5.835,0.783,7.474
				c1.324,0.874,2.989,0.835,4.33,1.238c-1.608-0.317-0.771-3.022-0.241-3.905c1.581-2.636,5.607-4.045,7.613-1.018
				c2.008,3.03-0.172,6.48-2.538,8.465c-3.292,2.762-7.577,3.26-11.75,3.113c-1.427-0.05-2.873-0.172-4.301-0.149
				c-0.95,0.016-1.798-0.401-1.471-1.574c0.193-0.691,0.737-1.216,1.163-1.792c1.66-2.243,1.523-5.487,0.139-7.909
				c-1.384-2.423-3.818-4.099-6.408-5.138c2.567,2.593,2.862,6.991,0.984,10.119c-1.878,3.128-5.617,4.914-9.265,4.825
				c-2.61-0.064-5.233-0.983-7.784-0.427c-4.249,0.926-6.965,5.638-11.263,6.301c2.75,0.555,5.36,1.103,8.163,1.208
				c7.041,0.262,14.093,0.386,21.144,0.568c2.906,0.075,5.809,0.166,8.713,0.169c3.623,3.197,6.526,7.211,8.392,11.669
				c0.52,1.243,0.969,2.562,0.883,3.906c-0.085,1.345-0.817,2.724-2.068,3.224c-1.88,0.75-4.032-0.844-4.638-2.775
				c-0.606-1.931-0.118-4.016,0.372-5.98c-2.288,0.437-4.3,2.114-5.143,4.285c-0.843,2.172-0.488,4.766,0.906,6.632
				c1.167,1.561,2.927,2.552,4.367,3.865c1.441,1.313,2.625,3.273,2.065,5.14c-0.566,1.887-2.859,2.9-4.775,2.438
				s-3.389-2.09-4.131-3.915c-0.742-1.826-0.858-3.84-0.87-5.81c-3.197,2.496-3.968,7.58-1.655,10.911
				c1.103,1.589,2.76,2.753,3.743,4.419c1.718,2.912,0.858,6.946-1.63,9.234c-2.488,2.289-6.268,2.882-9.503,1.902
				c-3.236-0.98-5.926-3.371-7.725-6.233c-1.799-2.862-2.772-6.174-3.336-9.507c-0.467-2.76-0.691-5.64-1.999-8.115
				c-1.308-2.475-4.111-4.452-6.819-3.742c-2.091,0.548-3.568,2.619-3.8,4.768c-0.233,2.149,0.617,4.309,1.928,6.027
				c-0.601-1.067,0.077-2.543,1.201-3.03c1.124-0.488,2.479-0.136,3.448,0.613c0.969,0.749,1.615,1.837,2.149,2.939
				c1.417,2.922,2.209,6.112,2.731,9.318c0.465,2.854,0.458,6.351-1.951,7.949c-2.949,1.956-7.646-0.224-9.631-2.637
				c-2.823-3.431-4.471-7.654-6.023-11.766c-1.966-5.208-4.013-10.649-8.122-14.405c-0.181-0.166-0.377-0.329-0.583-0.477
				c0.086-0.831,0.185-1.661,0.305-2.489c0.63-4.332,1.756-8.215,3.314-12.29c1.342-3.51,2.514-7.803,1.492-11.53
				c-0.737-2.689-2.646-5.49-5.223-6.837c0.385-1.201,0.458-2.559,0.174-3.71c-0.39-1.579-1.936-3.192-3.623-3.654
				c-1.687,0.462-3.233,2.075-3.623,3.654c-0.284,1.151-0.211,2.51,0.174,3.71c-2.577,1.347-4.485,4.148-5.223,6.837
				c-1.022,3.727,0.149,8.02,1.492,11.53c1.558,4.076,2.684,7.958,3.314,12.29c0.12,0.827,0.219,1.657,0.305,2.489
				c-0.206,0.148-0.402,0.311-0.583,0.477c-4.108,3.757-6.156,9.197-8.122,14.405c-1.552,4.112-3.2,8.336-6.023,11.766
				c-1.985,2.412-6.682,4.593-9.631,2.637c-2.41-1.599-2.417-5.095-1.952-7.949c0.523-3.206,1.314-6.395,2.731-9.318
				c0.535-1.102,1.18-2.19,2.149-2.939c0.969-0.749,2.324-1.1,3.448-0.613c1.124,0.488,1.802,1.963,1.201,3.03
				c1.311-1.718,2.161-3.879,1.928-6.027c-0.233-2.149-1.71-4.22-3.8-4.768c-2.708-0.71-5.511,1.267-6.819,3.742
				c-1.308,2.475-1.532,5.354-1.999,8.115c-0.564,3.333-1.537,6.645-3.336,9.507c-1.799,2.862-4.489,5.253-7.725,6.233
				c-3.236,0.98-7.016,0.387-9.503-1.902c-2.488-2.289-3.348-6.323-1.63-9.234c0.983-1.666,2.64-2.831,3.743-4.419
				c2.313-3.331,1.542-8.416-1.655-10.911c-0.011,1.971-0.127,3.985-0.869,5.81c-0.742,1.826-2.215,3.454-4.131,3.915
				c-1.916,0.462-4.208-0.551-4.774-2.438c-0.56-1.867,0.624-3.827,2.065-5.14c1.441-1.313,3.201-2.304,4.368-3.865
				c1.395-1.866,1.749-4.461,0.906-6.632s-2.855-3.848-5.143-4.285c0.49,1.964,0.979,4.048,0.372,5.98
				c-0.606,1.931-2.758,3.526-4.638,2.775c-1.251-0.5-1.982-1.879-2.068-3.224c-0.085-1.344,0.363-2.664,0.883-3.906
				c1.867-4.457,4.77-8.472,8.392-11.669c2.904-0.003,5.807-0.094,8.713-0.169c7.051-0.182,14.102-0.305,21.144-0.568
				c2.803-0.104,5.413-0.653,8.162-1.208c-4.298-0.663-7.014-5.375-11.263-6.301c-2.551-0.556-5.174,0.363-7.784,0.427
				c-3.648,0.089-7.386-1.697-9.265-4.825c-1.879-3.128-1.584-7.526,0.984-10.119c-2.589,1.039-5.024,2.715-6.408,5.138
				c-1.384,2.423-1.52,5.666,0.139,7.909c0.427,0.577,0.97,1.101,1.163,1.792c0.328,1.173-0.521,1.59-1.471,1.574
				c-1.428-0.024-2.874,0.099-4.301,0.149c-4.173,0.146-8.458-0.351-11.75-3.113c-2.366-1.985-4.546-5.435-2.538-8.465
				c2.005-3.027,6.032-1.618,7.613,1.018c0.529,0.883,1.366,3.588-0.241,3.905c1.341-0.404,3.006-0.365,4.33-1.238
				c2.486-1.64,2.616-5.296,0.783-7.474c-1.709-2.031-4.572-2.49-7.084-2.28c-1.401,0.117-2.838,0.721-4.25,0.622
				c-0.034,0.031-0.022,0.007,0.01-0.004c-0.646-0.011-1.236-0.543-1.718-0.917c-1.781-1.385-2.596-3.328-2.251-5.584
				c0.394-2.581,3.062-4.975,5.727-3.337c1.845,1.135,1.418,2.949-0.092,3.993c1.071,0.538,2.729-0.009,3.535-0.793
				c2.441-2.373,1.1-6.505-1.587-7.989c-1.086-0.6-2.233-0.804-3.454-0.589c-1.553,0.273-3.105,1.466-4.5,0.25
				c-1.281-1.117-2.231-2.774-2.944-4.293c-1.017-2.164-1.81-4.394-2.478-6.684c-0.702-2.407-1.773-5.054-1.524-7.614
				c0.737-7.576,11.034-2.948,14.808-1.013c3.158,1.619,6.465,2.938,9.561,4.679c2.812,1.581,5.456,3.478,8.206,5.18
				c2.876,1.779,5.667,3.695,8.373,5.724c1.668,1.251,3.305,2.545,4.908,3.879c0.847,0.705,3.164,2.003,1.837,3.334
				c-0.549,0.55-1.374,0.683-2.125,0.883c-3.948,1.051-6.951,4.94-6.97,9.025c-0.019,4.085,2.948,8.002,6.885,9.09
				c1.845,0.51,3.98,0.387,5.463-0.822c1.483-1.21,1.957-3.679,0.65-5.078c-0.188,1.192-1.628,1.948-2.771,1.56
				c-1.143-0.388-1.83-1.702-1.658-2.896c0.172-1.195,1.087-2.207,2.2-2.674c1.113-0.467,2.39-0.436,3.551-0.104
				c1.16,0.332,2.22,0.948,3.216,1.629c2.563,1.751,4.79,3.965,6.71,6.405c1.211,1.539,2.357,3.377,2.087,5.316
				c-0.186,1.339-1.036,2.543-1.07,3.894c-0.018,0.727,0.204,1.446,0.164,2.172c-0.04,0.726-0.475,1.528-1.198,1.603
				c0.401,0.74,1.497,0.842,2.221,0.414c0.724-0.428,1.149-1.217,1.486-1.988c0.337-0.771,0.638-1.587,1.225-2.19
				c1.38-1.417,4.055-1.385,4.858-3.192c0.035-0.079,0.065-0.159,0.09-0.241c0.237-0.764,0.056-1.63-0.334-2.339
				c-0.63-1.146-1.72-2.176-2.56-3.174c-1.009-1.199-2.069-2.355-3.086-3.547c-6.508-7.629-13.639-14.462-21.065-21.184
				c-4.29-3.883-8.509-7.892-13.221-11.273c-5.411-3.884-11.324-7.141-17.486-9.665c-5.078-2.08-10.235-4.2-15.53-5.67
				c-4.075-1.132-8.681-2.709-12.969-2.462c-2.511,0.145-5.552,0.954-7.136,3.085c-2.546,3.426-1.16,9.463,0.089,13.063
				c1.436,4.136,4.476,7.926,7.196,11.298c3.552,4.403,7.191,8.969,9.507,14.191c2.063,4.65,2.673,9.452,3.502,14.391
				c0.687,4.092,2.545,8.685,5.928,11.284c3.789,2.911,8.319,3.765,12.977,4.048c-6.232,5.079-10.354,12.745-10.948,20.778
				c-0.365,4.944,0.611,9.956,2.675,14.455c0.919,2.003,2.177,3.481,3.386,5.235c1.306,1.896,1.782,4.396,2.994,6.397
				c1.311,2.164,3.113,4.104,5.412,5.16c3.42,1.57,7.441,1.009,11.057,2.051c1.649,0.475,3.25,1.328,4.272,2.707
				c2.08,2.807,1.192,6.777-0.151,10.003c-1.343,3.225-3.095,6.585-2.458,10.02c0.254,1.369,1.092,2.82,2.467,3.04
				c1.267,0.203,2.476-0.756,3.049-1.903c0.573-1.148,0.677-2.462,0.899-3.725c1.283-7.31,6.82-12.741,13.616-15.168
				c2.992-1.068,5.3-3.774,7.328-6.154c2.76-3.24,4.922-6.951,6.814-10.749c2.041-4.098,3.811-8.327,5.903-12.401
				c0.727-1.416,1.492-2.814,2.317-4.176c0.258,5.477,0.078,11.002,0.271,16.463c0.058,1.656-0.248,4.045,0.683,5.531
				c0.445,0.71,1.332,1.342,2.27,1.702c0.938-0.36,1.825-0.992,2.27-1.702c0.93-1.486,0.624-3.875,0.683-5.531
				c0.193-5.461,0.013-10.986,0.271-16.463c0.825,1.362,1.59,2.76,2.317,4.176c2.091,4.074,3.861,8.302,5.903,12.401
				c1.892,3.799,4.054,7.51,6.814,10.749c2.028,2.38,4.336,5.086,7.328,6.154c6.796,2.427,12.333,7.858,13.616,15.168
				c0.222,1.263,0.326,2.578,0.899,3.725c0.573,1.148,1.782,2.106,3.048,1.903c1.375-0.22,2.213-1.671,2.467-3.04
				c0.637-3.435-1.115-6.795-2.458-10.02c-1.343-3.225-2.231-7.196-0.151-10.003c1.022-1.379,2.623-2.232,4.272-2.707
				c3.616-1.042,7.637-0.481,11.057-2.051c2.299-1.056,4.101-2.996,5.412-5.16c1.212-2.001,1.688-4.501,2.994-6.397
				c1.209-1.754,2.467-3.232,3.386-5.235c2.064-4.499,3.04-9.511,2.675-14.455c-0.593-8.033-4.715-15.699-10.948-20.778
				c4.658-0.282,9.188-1.137,12.977-4.048c3.383-2.599,5.241-7.192,5.928-11.284c0.829-4.939,1.439-9.741,3.501-14.391
				c2.316-5.221,5.955-9.788,9.507-14.191c2.72-3.372,5.76-7.162,7.196-11.298C234.07,303.392,235.456,297.355,232.91,293.929z"/>
			<path style="fill:#2E383A;" d="M124.316,336.476c1.672,2.183,3.016,4.734,3.741,7.389c0.093,0.34,0.651,0.284,0.629-0.085
				c-0.301-5.036-3.763-11.325-8.737-13.151c-0.315-0.116-0.634,0.302-0.444,0.577C120.861,333.169,122.858,334.574,124.316,336.476
				z"/>
			<path style="fill:#2E383A;" d="M135.657,343.865c0.725-2.655,2.069-5.206,3.741-7.389c1.457-1.902,3.455-3.307,4.811-5.27
				c0.19-0.275-0.129-0.693-0.444-0.577c-4.974,1.827-8.436,8.115-8.737,13.151C135.006,344.148,135.564,344.205,135.657,343.865z"
				/>
		</g>
	</g>
</g>
</svg>
